{"asset":{"version":"2.0","generator":"Blockbench 4.12.3 glTF exporter"},"scenes":[{"nodes":[8],"name":"blockbench_export"}],"scene":0,"nodes":[{"rotation":[0,0,-1,6.123233995736766e-17],"translation":[0,0.5,0],"name":"cone","mesh":0},{"translation":[0,0.125,0],"name":"torus","mesh":1},{"translation":[0,0.5625,0],"name":"flame3","children":[1]},{"translation":[0,0.0625,0],"name":"torus","mesh":2},{"translation":[0,0.5625,0],"name":"flame2","children":[3]},{"name":"torus","mesh":3},{"translation":[0,0.5625,0],"name":"flame1","children":[5]},{"name":"Torch","children":[0,2,4,6]},{"children":[7]}],"bufferViews":[{"buffer":0,"byteOffset":0,"byteLength":864,"target":34962,"byteStride":12},{"buffer":0,"byteOffset":864,"byteLength":864,"target":34962,"byteStride":12},{"buffer":0,"byteOffset":1728,"byteLength":576,"target":34962,"byteStride":8},{"buffer":0,"byteOffset":2304,"byteLength":144,"target":34963},{"buffer":0,"byteOffset":2448,"byteLength":4608,"target":34962,"byteStride":12},{"buffer":0,"byteOffset":7056,"byteLength":4608,"target":34962,"byteStride":12},{"buffer":0,"byteOffset":11664,"byteLength":3072,"target":34962,"byteStride":8},{"buffer":0,"byteOffset":14736,"byteLength":1152,"target":34963},{"buffer":0,"byteOffset":15888,"byteLength":4608,"target":34962,"byteStride":12},{"buffer":0,"byteOffset":20496,"byteLength":4608,"target":34962,"byteStride":12},{"buffer":0,"byteOffset":25104,"byteLength":3072,"target":34962,"byteStride":8},{"buffer":0,"byteOffset":28176,"byteLength":1152,"target":34963},{"buffer":0,"byteOffset":29328,"byteLength":4608,"target":34962,"byteStride":12},{"buffer":0,"byteOffset":33936,"byteLength":4608,"target":34962,"byteStride":12},{"buffer":0,"byteOffset":38544,"byteLength":3072,"target":34962,"byteStride":8},{"buffer":0,"byteOffset":41616,"byteLength":1152,"target":34963},{"buffer":0,"byteOffset":42768,"byteLength":20},{"buffer":0,"byteOffset":42788,"byteLength":60},{"buffer":0,"byteOffset":42848,"byteLength":20},{"buffer":0,"byteOffset":42868,"byteLength":60},{"buffer":0,"byteOffset":42928,"byteLength":20},{"buffer":0,"byteOffset":42948,"byteLength":60}],"buffers":[{"byteLength":43008,"uri":"data:application/octet-stream;base64,"}],"accessors":[{"bufferView":0,"componentType":5126,"count":72,"max":[0.125,0.5,0.125],"min":[-0.125,0,-0.125],"type":"VEC3"},{"bufferView":1,"componentType":5126,"count":72,"max":[0.9701424837112427,0.24253562092781067,0.9701424837112427],"min":[-0.9701424837112427,-1,-0.9701424837112427],"type":"VEC3"},{"bufferView":2,"componentType":5126,"count":72,"max":[0.40625,0.5701937675476074],"min":[0.012541098520159721,0],"type":"VEC2"},{"bufferView":3,"componentType":5123,"count":72,"max":[71],"min":[0],"type":"SCALAR"},{"bufferView":4,"componentType":5126,"count":384,"max":[0.03125,0.03235238045454025,0.03125],"min":[-0.03125,-0.03235238045454025,-0.03125],"type":"VEC3"},{"bufferView":5,"componentType":5126,"count":384,"max":[0.9912235736846924,0.6137139797210693,0.9912235736846924],"min":[-0.9912235736846924,-0.6137139797210693,-0.9912235736846924],"type":"VEC3"},{"bufferView":6,"componentType":5126,"count":384,"max":[0.7140607833862305,0.71875],"min":[0.1276741772890091,0.03094416856765747],"type":"VEC2"},{"bufferView":7,"componentType":5123,"count":576,"max":[383],"min":[0],"type":"SCALAR"},{"bufferView":8,"componentType":5126,"count":384,"max":[0.0625,0.03235238045454025,0.0625],"min":[-0.0625,-0.03235238045454025,-0.0625],"type":"VEC3"},{"bufferView":9,"componentType":5126,"count":384,"max":[0.9662189483642578,0.8410326838493347,0.9662189483642578],"min":[-0.9662189483642578,-0.8410326838493347,-0.9662189483642578],"type":"VEC3"},{"bufferView":10,"componentType":5126,"count":384,"max":[0.6513844132423401,0.65625],"min":[0.008523372933268547,0.3107033371925354],"type":"VEC2"},{"bufferView":11,"componentType":5123,"count":576,"max":[383],"min":[0],"type":"SCALAR"},{"bufferView":12,"componentType":5126,"count":384,"max":[0.09375,0.03235238045454025,0.09375],"min":[-0.09375,-0.03235238045454025,-0.09375],"type":"VEC3"},{"bufferView":13,"componentType":5126,"count":384,"max":[0.9284448027610779,0.919060468673706,0.9284448027610779],"min":[-0.9284448027610779,-0.919060468673706,-0.9284448027610779],"type":"VEC3"},{"bufferView":14,"componentType":5126,"count":384,"max":[0.7347756028175354,0.71875],"min":[0.015224386937916279,0],"type":"VEC2"},{"bufferView":15,"componentType":5123,"count":576,"max":[383],"min":[0],"type":"SCALAR"},{"bufferView":16,"componentType":5126,"count":5,"max":[0.5],"min":[0],"type":"SCALAR"},{"bufferView":17,"componentType":5126,"count":5,"max":[0,0.612500011920929,0],"min":[0,0.5625,0],"type":"VEC3"},{"bufferView":18,"componentType":5126,"count":5,"max":[0.5],"min":[0],"type":"SCALAR"},{"bufferView":19,"componentType":5126,"count":5,"max":[0,0.6000000238418579,0],"min":[0,0.5625,0],"type":"VEC3"},{"bufferView":20,"componentType":5126,"count":5,"max":[0.5],"min":[0],"type":"SCALAR"},{"bufferView":21,"componentType":5126,"count":5,"max":[0,0.5874999761581421,0],"min":[0,0.5625,0],"type":"VEC3"}],"materials":[{"pbrMetallicRoughness":{"metallicFactor":0,"roughnessFactor":1,"baseColorTexture":{"index":0}},"alphaMode":"MASK","alphaCutoff":0.05,"doubleSided":true}],"textures":[{"sampler":0,"source":0,"name":"texture"}],"samplers":[{"magFilter":9728,"minFilter":9728,"wrapS":33071,"wrapT":33071}],"images":[{"mimeType":"image/png","uri":"data:image/png;base64,"}],"meshes":[{"primitives":[{"mode":4,"attributes":{"POSITION":0,"NORMAL":1,"TEXCOORD_0":2},"indices":3,"material":0}]},{"primitives":[{"mode":4,"attributes":{"POSITION":4,"NORMAL":5,"TEXCOORD_0":6},"indices":7,"material":0}]},{"primitives":[{"mode":4,"attributes":{"POSITION":8,"NORMAL":9,"TEXCOORD_0":10},"indices":11,"material":0}]},{"primitives":[{"mode":4,"attributes":{"POSITION":12,"NORMAL":13,"TEXCOORD_0":14},"indices":15,"material":0}]}],"animations":[{"name":"flicker","samplers":[{"input":16,"output":17,"interpolation":"LINEAR"},{"input":18,"output":19,"interpolation":"LINEAR"},{"input":20,"output":21,"interpolation":"LINEAR"}],"channels":[{"sampler":0,"target":{"node":2,"path":"translation"}},{"sampler":1,"target":{"node":4,"path":"translation"}},{"sampler":2,"target":{"node":6,"path":"translation"}}]}]}